# xmcd
#
# Track frame offsets:
#	150
#	19142
#	42099
#	62247
#	84603
#	102331
#	121807
#	140505
#	157456
#	174804
#	189862
#	203014
#	222560
#	242103
#	257992
#	275240
#
# Disc length: 3890
#
# Revision: 1
# Processed by: cddbd v1.5.1PL0 Copyright (c) Steve Scherf et al.
# Submitted via: CDex 1.50
# Normalized: r0:TDELIM( - )
#
DISCID=ef0f3010
DTITLE=Various Artist - The Santa Barbara Slow Country Mix
DYEAR=2000
DGENRE=Country
TTITLE0=Faith Hill - Breathe
TTITLE1=Clay Walker - The Chain of Love
TTITLE2=Garth Brooks - The River
TTITLE3=Leann Rimes - How Do I Live
TTITLE4=Kenny Rogers - Lady
TTITLE5=Reba McEntire - She Thinks His Name Was John
TTITLE6=Tim McGraw - Don't Take The Girl
TTITLE7=Garth Brooks - The Thunder Rolls
TTITLE8=Ricky Van Shelton - Keep It Between The Lines
TTITLE9=Faith Hill - This Kiss
TTITLE10=Leann Rimes - Crazy
TTITLE11=Marc Cohn - Walking In Memphis
TTITLE12=Reba McEntire and Linda Evans - Does He Love You
TTITLE13=Kenny Rogers - The Gambler
TTITLE14=Travis Tritt - Anymore
TTITLE15=Garth Brooks - The Dance
EXTD=YEAR: 2000
EXTT0=
EXTT1=
EXTT2=
EXTT3=
EXTT4=
EXTT5=
EXTT6=
EXTT7=
EXTT8=
EXTT9=
EXTT10=
EXTT11=
EXTT12=
EXTT13=
EXTT14=
EXTT15=
PLAYORDER=
